<svg width="100%" height="100%" viewBox="0 0 612 621" version="1.1" xmlns="http://www.w3.org/2000/svg" xmlns:xlink="http://www.w3.org/1999/xlink" xml:space="preserve" xmlns:serif="http://www.serif.com/" style="fill-rule:evenodd;clip-rule:evenodd;stroke-linejoin:round;stroke-miterlimit:2;">
    <g transform="matrix(0.999989,0.00463188,0.00463188,-0.999989,303.269,605.184)">
        <path d="M1.365,-0.003C-160.029,-0.004 -290.865,131.937 -290.864,294.693C-290.864,457.45 -160.03,589.391 1.365,589.39C162.76,589.391 293.596,457.45 293.596,294.694C293.597,131.937 162.761,-0.004 1.365,-0.003" style="fill-rule:nonzero;"/>
    </g>
    <g>
        <g transform="matrix(72,0,0,72,112,447)">
            <path d="M0.511,-0.251C0.511,-0.198 0.498,-0.152 0.472,-0.113C0.446,-0.075 0.41,-0.046 0.366,-0.027C0.337,-0.015 0.304,-0.006 0.267,-0C0.229,0.005 0.185,0.008 0.133,0.008L0.089,0.008C0.09,-0.017 0.09,-0.063 0.091,-0.131C0.091,-0.199 0.091,-0.281 0.091,-0.377C0.091,-0.436 0.091,-0.492 0.091,-0.547C0.09,-0.602 0.09,-0.659 0.089,-0.716L0.167,-0.716L0.165,-0.491C0.232,-0.49 0.285,-0.484 0.325,-0.473C0.366,-0.462 0.399,-0.446 0.426,-0.427C0.453,-0.407 0.475,-0.383 0.489,-0.353C0.504,-0.323 0.511,-0.289 0.511,-0.251ZM0.433,-0.249C0.433,-0.288 0.422,-0.321 0.4,-0.348C0.377,-0.375 0.349,-0.394 0.313,-0.406C0.295,-0.412 0.276,-0.417 0.254,-0.421C0.233,-0.424 0.211,-0.426 0.189,-0.426L0.165,-0.426C0.165,-0.419 0.165,-0.393 0.165,-0.348C0.165,-0.303 0.165,-0.266 0.165,-0.237C0.165,-0.183 0.165,-0.145 0.165,-0.122C0.165,-0.1 0.166,-0.077 0.166,-0.054C0.201,-0.054 0.234,-0.056 0.264,-0.062C0.293,-0.067 0.319,-0.076 0.34,-0.087C0.372,-0.104 0.395,-0.125 0.41,-0.153C0.425,-0.18 0.433,-0.212 0.433,-0.249Z" style="fill:white;fill-rule:nonzero;"/>
        </g>
        <g transform="matrix(72,0,0,72,151.888,447)">
            <path d="M0.507,-0.474C0.444,-0.334 0.377,-0.185 0.307,-0.028C0.237,0.129 0.199,0.213 0.195,0.223L0.127,0.198L0.229,-0.011C0.226,-0.018 0.205,-0.065 0.167,-0.154C0.129,-0.242 0.082,-0.348 0.027,-0.471L0.101,-0.503C0.136,-0.412 0.173,-0.323 0.21,-0.235C0.247,-0.146 0.267,-0.1 0.269,-0.095L0.27,-0.095C0.271,-0.098 0.29,-0.142 0.325,-0.225C0.36,-0.308 0.399,-0.4 0.44,-0.501L0.507,-0.474Z" style="fill:white;fill-rule:nonzero;"/>
        </g>
        <g transform="matrix(95,0,0,95,110,522)">
            <path d="M0.172,-0L0.095,-0C0.095,-0.004 0.095,-0.052 0.096,-0.143C0.096,-0.234 0.097,-0.31 0.097,-0.37C0.097,-0.409 0.097,-0.458 0.096,-0.517C0.096,-0.576 0.096,-0.642 0.095,-0.716L0.172,-0.716C0.171,-0.666 0.171,-0.608 0.17,-0.542C0.17,-0.476 0.17,-0.42 0.17,-0.375C0.17,-0.276 0.17,-0.19 0.171,-0.116C0.172,-0.042 0.172,-0.004 0.172,-0Z" style="fill:white;fill-rule:nonzero;"/>
        </g>
        <g transform="matrix(95,0,0,95,135.341,522)">
            <path d="M0.492,-0L0.417,-0L0.417,-0.057L0.417,-0.057C0.394,-0.042 0.365,-0.027 0.331,-0.011C0.297,0.005 0.264,0.013 0.231,0.013C0.186,0.013 0.151,-0.001 0.125,-0.027C0.1,-0.054 0.087,-0.091 0.087,-0.14C0.087,-0.166 0.088,-0.197 0.088,-0.233C0.089,-0.269 0.089,-0.295 0.089,-0.311C0.089,-0.341 0.088,-0.377 0.088,-0.421C0.087,-0.464 0.086,-0.489 0.086,-0.494L0.164,-0.494C0.164,-0.49 0.163,-0.466 0.163,-0.424C0.162,-0.381 0.162,-0.347 0.162,-0.322C0.162,-0.299 0.162,-0.271 0.162,-0.238C0.162,-0.204 0.163,-0.181 0.163,-0.167C0.163,-0.128 0.17,-0.1 0.183,-0.082C0.195,-0.064 0.216,-0.055 0.244,-0.055C0.273,-0.055 0.305,-0.063 0.34,-0.079C0.374,-0.094 0.4,-0.108 0.416,-0.12C0.416,-0.124 0.416,-0.142 0.417,-0.174C0.417,-0.206 0.417,-0.246 0.417,-0.293C0.417,-0.328 0.417,-0.369 0.416,-0.416C0.415,-0.464 0.415,-0.49 0.415,-0.494L0.492,-0.494C0.492,-0.489 0.491,-0.47 0.491,-0.439C0.49,-0.408 0.49,-0.355 0.49,-0.28C0.49,-0.238 0.49,-0.201 0.49,-0.17C0.491,-0.138 0.491,-0.081 0.492,-0Z" style="fill:white;fill-rule:nonzero;"/>
        </g>
        <g transform="matrix(95,0,0,95,190.554,522)">
            <path d="M0.415,-0.063L0.409,0.002L0.382,0.002C0.34,0.002 0.301,-0.002 0.265,-0.01C0.228,-0.018 0.195,-0.03 0.167,-0.045C0.127,-0.067 0.096,-0.095 0.074,-0.131C0.052,-0.166 0.041,-0.206 0.041,-0.25C0.041,-0.289 0.051,-0.324 0.071,-0.357C0.091,-0.39 0.118,-0.417 0.15,-0.438C0.18,-0.456 0.215,-0.471 0.256,-0.481C0.296,-0.491 0.339,-0.496 0.382,-0.496L0.402,-0.496L0.406,-0.43L0.391,-0.43C0.355,-0.43 0.324,-0.428 0.299,-0.424C0.273,-0.419 0.248,-0.412 0.224,-0.402C0.192,-0.389 0.166,-0.368 0.147,-0.34C0.129,-0.312 0.119,-0.282 0.119,-0.25C0.119,-0.212 0.128,-0.18 0.146,-0.155C0.163,-0.129 0.187,-0.109 0.216,-0.095C0.239,-0.084 0.265,-0.076 0.293,-0.071C0.322,-0.066 0.352,-0.063 0.384,-0.063L0.415,-0.063Z" style="fill:white;fill-rule:nonzero;"/>
        </g>
        <g transform="matrix(95,0,0,95,233.708,522)">
            <path d="M0.429,-0.278C0.429,-0.198 0.429,-0.132 0.428,-0.081C0.428,-0.03 0.428,-0.003 0.428,0.001C0.424,0.001 0.409,0.003 0.382,0.005C0.355,0.007 0.32,0.008 0.278,0.008C0.251,0.008 0.224,0.005 0.197,0C0.17,-0.004 0.147,-0.011 0.127,-0.021C0.101,-0.033 0.08,-0.049 0.064,-0.07C0.048,-0.091 0.04,-0.116 0.04,-0.145C0.04,-0.176 0.05,-0.203 0.069,-0.225C0.088,-0.248 0.114,-0.266 0.148,-0.28C0.169,-0.289 0.197,-0.297 0.233,-0.304C0.268,-0.311 0.308,-0.316 0.354,-0.32C0.352,-0.345 0.345,-0.366 0.334,-0.382C0.324,-0.399 0.308,-0.411 0.287,-0.419C0.273,-0.425 0.257,-0.429 0.239,-0.432C0.222,-0.434 0.201,-0.436 0.178,-0.436C0.163,-0.436 0.151,-0.435 0.14,-0.435C0.13,-0.434 0.116,-0.433 0.099,-0.432L0.106,-0.497C0.111,-0.497 0.121,-0.498 0.135,-0.499C0.15,-0.5 0.17,-0.5 0.195,-0.5C0.233,-0.5 0.267,-0.496 0.298,-0.488C0.328,-0.48 0.353,-0.467 0.373,-0.449C0.391,-0.432 0.405,-0.411 0.415,-0.386C0.424,-0.362 0.429,-0.326 0.429,-0.278ZM0.354,-0.161L0.354,-0.203C0.354,-0.22 0.354,-0.239 0.354,-0.261C0.339,-0.261 0.314,-0.258 0.278,-0.253C0.243,-0.248 0.212,-0.24 0.188,-0.231C0.17,-0.224 0.154,-0.214 0.139,-0.2C0.125,-0.187 0.118,-0.17 0.118,-0.149C0.118,-0.127 0.124,-0.109 0.136,-0.096C0.148,-0.082 0.165,-0.072 0.186,-0.065C0.201,-0.059 0.219,-0.055 0.239,-0.053C0.258,-0.051 0.278,-0.049 0.3,-0.049C0.306,-0.049 0.314,-0.049 0.324,-0.05C0.333,-0.05 0.343,-0.05 0.354,-0.051C0.354,-0.053 0.354,-0.064 0.354,-0.083C0.354,-0.102 0.354,-0.128 0.354,-0.161Z" style="fill:white;fill-rule:nonzero;"/>
        </g>
        <g transform="matrix(95,0,0,95,282.52,522)">
            <path d="M0.358,-0.143C0.358,-0.119 0.352,-0.097 0.34,-0.079C0.329,-0.06 0.313,-0.044 0.294,-0.033C0.275,-0.02 0.251,-0.011 0.224,-0.005C0.197,0.002 0.167,0.005 0.134,0.005C0.118,0.005 0.101,0.004 0.084,0.003C0.067,0.001 0.057,0 0.055,-0L0.052,-0.064C0.055,-0.064 0.066,-0.063 0.086,-0.061C0.106,-0.06 0.125,-0.059 0.145,-0.059C0.156,-0.059 0.171,-0.06 0.189,-0.062C0.207,-0.064 0.222,-0.068 0.233,-0.073C0.25,-0.08 0.262,-0.089 0.27,-0.099C0.277,-0.11 0.281,-0.122 0.281,-0.137C0.281,-0.15 0.278,-0.161 0.271,-0.169C0.264,-0.177 0.255,-0.186 0.243,-0.193C0.23,-0.202 0.212,-0.212 0.189,-0.221C0.167,-0.231 0.148,-0.241 0.132,-0.25C0.111,-0.263 0.094,-0.279 0.082,-0.297C0.071,-0.316 0.065,-0.337 0.065,-0.361C0.065,-0.385 0.072,-0.407 0.085,-0.426C0.098,-0.445 0.116,-0.46 0.138,-0.472C0.157,-0.483 0.178,-0.49 0.201,-0.493C0.225,-0.496 0.247,-0.498 0.269,-0.498C0.289,-0.498 0.305,-0.498 0.318,-0.497C0.331,-0.496 0.338,-0.496 0.34,-0.496L0.345,-0.431C0.343,-0.431 0.333,-0.432 0.315,-0.433C0.297,-0.434 0.278,-0.435 0.257,-0.435C0.242,-0.435 0.228,-0.434 0.214,-0.431C0.201,-0.429 0.189,-0.425 0.18,-0.42C0.166,-0.413 0.156,-0.404 0.15,-0.394C0.144,-0.384 0.141,-0.374 0.141,-0.365C0.141,-0.352 0.145,-0.34 0.153,-0.331C0.162,-0.322 0.172,-0.314 0.183,-0.307C0.196,-0.299 0.215,-0.29 0.238,-0.279C0.261,-0.269 0.278,-0.26 0.288,-0.253C0.311,-0.239 0.328,-0.223 0.34,-0.206C0.352,-0.188 0.358,-0.167 0.358,-0.143Z" style="fill:white;fill-rule:nonzero;"/>
        </g>
    </g>
    <g id="body">
        <path d="M292.113,559.184C295.405,563.704 301.656,575.559 331.674,573.754C361.692,571.949 415.77,550.21 444.103,534.121C472.436,518.033 511.765,490.163 516.666,478.908C521.567,467.652 528.957,466.566 518.259,450.569C507.561,434.572 494.189,429.379 491.179,414.842C487.249,395.869 483.413,386.389 476.298,375.582C469.184,364.775 444.21,334.496 431.741,324.697C419.272,314.897 396.455,298.543 386.949,289.126C381.259,283.489 368.254,280.113 362.496,284.342C356.738,288.572 350.169,306.007 331.674,319.124C319.852,327.508 284.528,340.069 271.473,345.444C258.418,350.819 236.257,363.389 239.158,369.23C242.059,375.072 244.481,367.423 253.293,365.275C262.106,363.126 303.436,335.908 306,341.611C308.564,347.314 243.013,394.915 227.222,407.21C218.886,413.7 207.949,434.926 201.137,436.702C194.324,438.478 186.08,443.038 189.759,451.277C193.874,460.491 201.06,452.238 220.837,435.072C240.613,417.905 262.835,407.246 266.772,411.181C273.915,418.319 248.892,443.611 257.189,448.454C265.486,453.298 267.653,448.577 277.564,439.809C287.475,431.04 326.718,403.116 331.674,400.605C336.629,398.095 341.848,393.858 341.827,395.461C341.586,413.994 320.981,434.439 316.9,441.29C312.819,448.142 306.236,447.355 318.47,449.928C330.705,452.501 377.049,422.34 389.184,425.355C394.895,426.775 396.161,432.066 394.051,434.975C377.873,457.28 288.822,554.663 292.113,559.184Z" style="fill:white;"/>
    </g>
    <g id="collar">
        <path d="M220.837,290.446C220.837,290.446 228.218,314.433 233.783,318.048C239.348,321.662 215.767,317.277 213.798,325.22C211.83,333.162 213.019,336.837 220.837,338.715C233.94,341.861 271.141,330.432 293.53,321.022C307.985,314.947 323.976,307.269 331.674,301.394C339.371,295.519 349.58,286.556 349.802,282.442C350.025,278.329 354.285,278.196 356.3,270.532C358.314,262.868 352.918,270.696 346.762,264.897C340.606,259.097 338.239,225.014 331.674,234.634C325.108,244.254 332.468,243.558 321.27,256.11C310.072,268.662 299.78,272.897 276.108,282.442C262.076,288.101 220.837,290.446 220.837,290.446Z" style="fill:white;"/>
    </g>
    <g id="face">
        <path d="M233.825,269.241C243.114,269.726 244.208,270.175 256.915,264.847C269.622,259.519 275.812,253.718 284.846,251.337C293.88,248.956 310.686,232.062 313.253,223.239C315.819,214.417 318.114,189.302 321.552,178.579C324.989,167.857 328.071,164.964 326.865,152.091C325.998,142.837 328.991,134.06 322.876,133.054C316.761,132.048 317.925,138.044 312.946,139.53C307.968,141.017 305.891,131.843 296.716,127.88C287.54,123.917 285.489,123.736 277.528,124.825C269.567,125.915 263.343,126.673 263.343,126.673C263.343,126.673 263.121,128.675 260.879,132.574C258.636,136.472 259.554,134.613 254.915,135.968C250.276,137.324 248.841,145.439 245.374,142.843C241.907,140.247 245.005,129.769 246.759,124.728C248.513,119.687 243.431,118.593 265.751,118.47C288.071,118.347 294.864,121.314 299.489,123.384C304.114,125.454 311.774,131.759 315.575,128.659C319.376,125.56 319.884,124.8 321.503,119.577C323.122,114.355 325.641,112.249 327.289,97.382C328.547,86.026 328.186,74.702 322.727,72.431C309.127,66.772 272.587,61.603 254.202,62.462C235.817,63.322 211.141,65.556 203.104,70.032C195.067,74.509 184.914,115.732 188.851,122.681C192.788,129.63 210.749,126.777 220.837,132.308C230.925,137.839 231.516,141.232 230.138,145.349C228.759,149.466 230.21,149.489 220.837,151.306C211.464,153.122 203.837,153.995 196.614,153.132C189.391,152.269 183.003,153.245 181.1,155.823C175.846,162.944 175.702,167.741 181.065,174.363C186.429,180.984 193.765,203.876 193.636,216.802C193.507,229.728 196.462,238.646 205.493,249.685C214.524,260.724 224.536,268.757 233.825,269.241Z" style="fill:white;"/>
    </g>
    <g id="mouth">
        <path d="M216.052,219.234C216.679,222.899 223.966,218.878 229.023,216.674C234.079,214.469 236.874,215.591 245.04,216.572C253.206,217.552 259.012,216.311 262.274,213.8C265.536,211.289 272.832,212.41 269.415,209.525C265.998,206.64 265.177,207.435 259.072,208.306C252.968,209.177 244.745,210.175 239.542,210.356C234.339,210.538 225.272,210.777 221.683,211.841C218.095,212.904 215.434,215.631 216.052,219.234Z"/>
    </g>
    <g id="nose">
        <path d="M215.962,182.926C215.962,182.926 223.013,181.359 224.89,183.115C226.766,184.871 226.381,186.991 226.381,186.991C226.381,186.991 220.612,186.744 219.812,185.882C219.013,185.021 215.962,182.926 215.962,182.926Z"/>
        <path d="M243.706,180.1L238.835,180.178C238.835,180.178 237.355,183.48 239.172,184.637C240.988,185.793 240.215,184.29 243.706,184.637C247.197,184.983 247.982,182.282 247.982,182.282L243.706,180.1Z"/>
    </g>
    <g id="eyes">
        <path d="M186.522,143.535C186.522,143.535 184.06,146.276 188.851,147.615C194.202,149.11 196.343,141.146 199.415,139.189C202.487,137.232 206.111,135.691 211.4,135.985C216.689,136.279 204.83,127.395 198.163,129.65C191.496,131.905 186.522,143.535 186.522,143.535Z" style="fill:white;"/>
        <path d="M271.45,136.724C276.445,136.478 292.113,135.262 295.09,136.551C298.066,137.84 300.267,138.47 300.267,141.378C300.267,144.286 303.222,149.004 298.27,148.307C293.319,147.61 267.872,149.045 265.307,148.307C262.741,147.569 259.437,148.307 259.437,148.307C259.437,148.307 258.067,141.988 260.669,141.378C263.27,140.768 266.234,139.651 266.234,139.651C266.234,139.651 266.455,136.97 271.45,136.724Z"/>
    </g>
    <g id="ears">
        <path d="M381.965,150.728C381.965,150.728 388.189,154.602 388.982,162.55C389.775,170.497 391.018,179.068 386.673,182.591C382.327,186.114 370.375,199.215 365.476,199.153C360.578,199.092 357.302,199.51 355.691,197.531C354.081,195.551 350.537,193.831 353.533,190.537C356.529,187.243 359.922,183.665 362.849,182.591C365.777,181.517 361.78,173.347 363.438,171.474C365.097,169.601 365.72,170.719 366.761,168.545C367.802,166.37 363.796,159.884 366.968,158.955C370.14,158.026 373.208,155.436 374.624,159.6C376.04,163.764 374.546,174.757 378.301,175.823C382.056,176.889 382.099,168.289 381.483,163.302C380.868,158.316 381.965,150.728 381.965,150.728Z" style="fill:white;"/>
        <path d="M354.716,158.658C357.144,161.062 361.956,159.454 365.362,155.881C368.768,152.307 370.174,143.841 371.072,142.172C371.971,140.504 369.126,138.409 364.86,142.172C360.595,145.936 355.848,147.771 354.494,150.728C353.141,153.685 350.762,154.743 354.716,158.658Z" style="fill:white;"/>
        <path d="M175.716,177.748C177.991,179.025 180.915,181.022 182.645,185.014C184.376,189.007 187.57,199.844 185.826,201.188C184.082,202.532 181.652,203.856 180.159,199.153C178.666,194.451 178.42,191.893 177.989,188.611C177.558,185.329 175.247,185.008 174.201,182.464C173.155,179.92 173.44,176.47 175.716,177.748Z" style="fill:white;"/>
    </g>
</svg>
